<svg xmlns="http://www.w3.org/2000/svg" version="1.1" xmlns:xlink="http://www.w3.org/1999/xlink" xmlns:svgjs="http://svgjs.com/svgjs" width="1440" height="560" preserveAspectRatio="none" viewBox="0 0 1440 560"><g mask="url(&quot;#SvgjsMask1000&quot;)" fill="none"><rect width="1440" height="560" x="0" y="0" fill="#0e2a47"></rect><path d="M0 355.21L10 324.17L20 357.85L30 396.54L40 439.33L50 491.73L60 437.17L70 425.83L80 386.53L90 428.31L100 489.11L110 501.71L120 504.5L130 439.5L140 460.65L150 461.08L160 457.92L170 454.67L180 467.61L190 413.35L200 402.66L210 470.79L220 442.65L230 503.53L240 512.77L250 519.95L260 530.57L270 508.66L280 496.15L290 523.73L300 467.69L310 438.52L320 386.36L330 417.66L340 363.65L350 398.8L360 345.55L370 281.16L380 220.24L390 284.88L400 318.5L410 353.48L420 379.12L430 428.14L440 495.53L450 527.48L460 488.82L470 512.09L480 513.25L490 454.21L500 413.35L510 365.95L520 307.28L530 324.86L540 335.59L550 398.4L560 410.59L570 465.9L580 484.58L590 458.28L600 514.38L610 544.94L620 480.94L630 440.68L640 462.74L650 439.97L660 420.84L670 365.31L680 406.22L690 344.23L700 314.41L710 335.33L720 347.65L730 417.01L740 440.38L750 371.84L760 394.44L770 387.85L780 341.54L790 280.33L800 219.12L810 244.05L820 175.58L830 134.44L840 171.12L850 221.78L860 261.83L870 213.84L880 270.17L890 318.5L900 280.08L910 286.58L920 311.76L930 329.77L940 375.15L950 324.71L960 359.63L970 404.05L980 440.69L990 498.87L1000 557.55L1010 521.4L1020 528.79L1030 516.55L1040 456.76L1050 487.9L1060 524.11L1070 532.83L1080 479.45L1090 486.07L1100 421.88L1110 434.86L1120 378.97L1130 318.52L1140 387.89L1150 457.03L1160 501.37L1170 495.52L1180 452.87L1190 462.93L1200 491.09L1210 543.22L1220 520.01L1230 457.42L1240 482.42L1250 501.96L1260 559.98L1270 504.49L1280 470.18L1290 456.96L1300 492.11L1310 507.07L1320 505.8L1330 479.49L1340 425.97L1350 376.07L1360 324.43L1370 266.37L1380 334.19L1390 366.86L1400 418.14L1410 367.04L1420 315.57L1430 325.14L1440 372.04" stroke="#224b75" stroke-width="2"></path><path d="M0 355.21L10 324.17L20 357.85L30 396.54L40 439.33L50 491.73L60 437.17L70 425.83L80 386.53L90 428.31L100 489.11L110 501.71L120 504.5L130 439.5L140 460.65L150 461.08L160 457.92L170 454.67L180 467.61L190 413.35L200 402.66L210 470.79L220 442.65L230 503.53L240 512.77L250 519.95L260 530.57L270 508.66L280 496.15L290 523.73L300 467.69L310 438.52L320 386.36L330 417.66L340 363.65L350 398.8L360 345.55L370 281.16L380 220.24L390 284.88L400 318.5L410 353.48L420 379.12L430 428.14L440 495.53L450 527.48L460 488.82L470 512.09L480 513.25L490 454.21L500 413.35L510 365.95L520 307.28L530 324.86L540 335.59L550 398.4L560 410.59L570 465.9L580 484.58L590 458.28L600 514.38L610 544.94L620 480.94L630 440.68L640 462.74L650 439.97L660 420.84L670 365.31L680 406.22L690 344.23L700 314.41L710 335.33L720 347.65L730 417.01L740 440.38L750 371.84L760 394.44L770 387.85L780 341.54L790 280.33L800 219.12L810 244.05L820 175.58L830 134.44L840 171.12L850 221.78L860 261.83L870 213.84L880 270.17L890 318.5L900 280.08L910 286.58L920 311.76L930 329.77L940 375.15L950 324.71L960 359.63L970 404.05L980 440.69L990 498.87L1000 557.55L1010 521.4L1020 528.79L1030 516.55L1040 456.76L1050 487.9L1060 524.11L1070 532.83L1080 479.45L1090 486.07L1100 421.88L1110 434.86L1120 378.97L1130 318.52L1140 387.89L1150 457.03L1160 501.37L1170 495.52L1180 452.87L1190 462.93L1200 491.09L1210 543.22L1220 520.01L1230 457.42L1240 482.42L1250 501.96L1260 559.98L1270 504.49L1280 470.18L1290 456.96L1300 492.11L1310 507.07L1320 505.8L1330 479.49L1340 425.97L1350 376.07L1360 324.43L1370 266.37L1380 334.19L1390 366.86L1400 418.14L1410 367.04L1420 315.57L1430 325.14L1440 372.04L1440 560L0 560z" fill="url(#SvgjsLinearGradient1001)"></path></g><defs><mask id="SvgjsMask1000"><rect width="1440" height="560" fill="#ffffff"></rect></mask><linearGradient x1="50%" y1="0%" x2="50%" y2="100%" id="SvgjsLinearGradient1001"><stop stop-opacity="0.65" stop-color="#224b75" offset="0"></stop><stop stop-opacity="0" stop-color="#508dcc" offset="0.8"></stop></linearGradient></defs></svg>