<svg xmlns="http://www.w3.org/2000/svg" version="1.1" xmlns:xlink="http://www.w3.org/1999/xlink" xmlns:svgjs="http://svgjs.com/svgjs" width="1440" height="560" preserveAspectRatio="none" viewBox="0 0 1440 560">
    <g mask="url(&quot;#SvgjsMask1000&quot;)" fill="none">
        <rect width="1440" height="560" x="0" y="0" fill="#0e2a47"></rect>
        <path d="M-97.84 400.4L-97.84 400.4" stroke="#132e65" stroke-width="1.5"></path>
        <path d="M-97.84 400.4L-84.86 518.42" stroke="#132e65" stroke-width="1.5"></path>
        <path d="M-97.84 400.4L41.06 387.91" stroke="#132e65" stroke-width="1.5"></path>
        <path d="M-97.84 400.4L59.2 504.52" stroke="#132e65" stroke-width="1.5"></path>
        <path d="M-97.84 400.4L-59.68 688.57" stroke="#132e65" stroke-width="1.5"></path>
        <path d="M-97.84 400.4L197.41 375.5" stroke="#132e65" stroke-width="1.5"></path>
        <path d="M-84.86 518.42L-84.86 518.42" stroke="#132e65" stroke-width="1.5"></path>
        <path d="M-84.86 518.42L59.2 504.52" stroke="#132e65" stroke-width="1.5"></path>
        <path d="M-84.86 518.42L-59.68 688.57" stroke="#132e65" stroke-width="1.5"></path>
        <path d="M-59.68 688.57L-59.68 688.57" stroke="#132e65" stroke-width="1.5"></path>
        <path d="M-59.68 688.57L108.59 662.63" stroke="#132e65" stroke-width="1.5"></path>
        <path d="M-59.68 688.57L59.2 504.52" stroke="#132e65" stroke-width="1.5"></path>
        <path d="M-59.68 688.57L225.88 656.31" stroke="#132e65" stroke-width="1.5"></path>
        <path d="M41.06 387.91L41.06 387.91" stroke="#132e65" stroke-width="1.5"></path>
        <path d="M41.06 387.91L59.2 504.52" stroke="#132e65" stroke-width="1.5"></path>
        <path d="M41.06 387.91L197.41 375.5" stroke="#132e65" stroke-width="1.5"></path>
        <path d="M59.2 504.52L59.2 504.52" stroke="#132e65" stroke-width="1.5"></path>
        <path d="M59.2 504.52L108.59 662.63" stroke="#132e65" stroke-width="1.5"></path>
        <path d="M59.2 504.52L197.41 375.5" stroke="#132e65" stroke-width="1.5"></path>
        <path d="M108.59 662.63L108.59 662.63" stroke="#132e65" stroke-width="1.5"></path>
        <path d="M108.59 662.63L225.88 656.31" stroke="#132e65" stroke-width="1.5"></path>
        <path d="M197.41 375.5L197.41 375.5" stroke="#132e65" stroke-width="1.5"></path>
        <path d="M197.41 375.5L411.73 368.8" stroke="#132e65" stroke-width="1.5"></path>
        <path d="M225.88 656.31L225.88 656.31" stroke="#132e65" stroke-width="1.5"></path>
        <path d="M225.88 656.31L386.94 688.59" stroke="#132e65" stroke-width="1.5"></path>
        <path d="M411.73 368.8L411.73 368.8" stroke="#132e65" stroke-width="1.5"></path>
        <path d="M411.73 368.8L531.53 407.79" stroke="#132e65" stroke-width="1.5"></path>
        <path d="M411.73 368.8L374.91 533.82" stroke="#132e65" stroke-width="1.5"></path>
        <path d="M411.73 368.8L493.63 538.18" stroke="#132e65" stroke-width="1.5"></path>
        <path d="M411.73 368.8L654.65 411.29" stroke="#132e65" stroke-width="1.5"></path>
        <path d="M411.73 368.8L689.72 507.47" stroke="#132e65" stroke-width="1.5"></path>
        <path d="M374.91 533.82L374.91 533.82" stroke="#132e65" stroke-width="1.5"></path>
        <path d="M374.91 533.82L493.63 538.18" stroke="#132e65" stroke-width="1.5"></path>
        <path d="M374.91 533.82L386.94 688.59" stroke="#132e65" stroke-width="1.5"></path>
        <path d="M374.91 533.82L225.88 656.31" stroke="#132e65" stroke-width="1.5"></path>
        <path d="M374.91 533.82L531.53 407.79" stroke="#132e65" stroke-width="1.5"></path>
        <path d="M386.94 688.59L386.94 688.59" stroke="#132e65" stroke-width="1.5"></path>
        <path d="M386.94 688.59L493.63 538.18" stroke="#132e65" stroke-width="1.5"></path>
        <path d="M386.94 688.59L108.59 662.63" stroke="#132e65" stroke-width="1.5"></path>
        <path d="M386.94 688.59L680.81 674.81" stroke="#132e65" stroke-width="1.5"></path>
        <path d="M531.53 407.79L531.53 407.79" stroke="#132e65" stroke-width="1.5"></path>
        <path d="M531.53 407.79L654.65 411.29" stroke="#132e65" stroke-width="1.5"></path>
        <path d="M493.63 538.18L493.63 538.18" stroke="#132e65" stroke-width="1.5"></path>
        <path d="M493.63 538.18L531.53 407.79" stroke="#132e65" stroke-width="1.5"></path>
        <path d="M654.65 411.29L654.65 411.29" stroke="#132e65" stroke-width="1.5"></path>
        <path d="M654.65 411.29L689.72 507.47" stroke="#132e65" stroke-width="1.5"></path>
        <path d="M654.65 411.29L788.26 361.86" stroke="#132e65" stroke-width="1.5"></path>
        <path d="M654.65 411.29L790.73 514.9" stroke="#132e65" stroke-width="1.5"></path>
        <path d="M654.65 411.29L493.63 538.18" stroke="#132e65" stroke-width="1.5"></path>
        <path d="M689.72 507.47L689.72 507.47" stroke="#132e65" stroke-width="1.5"></path>
        <path d="M689.72 507.47L790.73 514.9" stroke="#132e65" stroke-width="1.5"></path>
        <path d="M689.72 507.47L680.81 674.81" stroke="#132e65" stroke-width="1.5"></path>
        <path d="M689.72 507.47L788.26 361.86" stroke="#132e65" stroke-width="1.5"></path>
        <path d="M680.81 674.81L680.81 674.81" stroke="#132e65" stroke-width="1.5"></path>
        <path d="M828.66 95.96L828.66 95.96" stroke="#132e65" stroke-width="1.5"></path>
        <path d="M828.66 95.96L841.37 211.09" stroke="#132e65" stroke-width="1.5"></path>
        <path d="M828.66 95.96L993.09 47.07" stroke="#132e65" stroke-width="1.5"></path>
        <path d="M828.66 95.96L965.48 231.66" stroke="#132e65" stroke-width="1.5"></path>
        <path d="M841.37 211.09L841.37 211.09" stroke="#132e65" stroke-width="1.5"></path>
        <path d="M841.37 211.09L965.48 231.66" stroke="#132e65" stroke-width="1.5"></path>
        <path d="M841.37 211.09L788.26 361.86" stroke="#132e65" stroke-width="1.5"></path>
        <path d="M788.26 361.86L788.26 361.86" stroke="#132e65" stroke-width="1.5"></path>
        <path d="M788.26 361.86L790.73 514.9" stroke="#132e65" stroke-width="1.5"></path>
        <path d="M788.26 361.86L985.76 406.71" stroke="#132e65" stroke-width="1.5"></path>
        <path d="M788.26 361.86L965.48 231.66" stroke="#132e65" stroke-width="1.5"></path>
        <path d="M790.73 514.9L790.73 514.9" stroke="#132e65" stroke-width="1.5"></path>
        <path d="M790.73 514.9L680.81 674.81" stroke="#132e65" stroke-width="1.5"></path>
        <path d="M790.73 514.9L1007.14 522.14" stroke="#132e65" stroke-width="1.5"></path>
        <path d="M993.09 47.07L993.09 47.07" stroke="#132e65" stroke-width="1.5"></path>
        <path d="M993.09 47.07L1098.1 58.86" stroke="#132e65" stroke-width="1.5"></path>
        <path d="M965.48 231.66L965.48 231.66" stroke="#132e65" stroke-width="1.5"></path>
        <path d="M965.48 231.66L1107.69 194.09" stroke="#132e65" stroke-width="1.5"></path>
        <path d="M965.48 231.66L985.76 406.71" stroke="#132e65" stroke-width="1.5"></path>
        <path d="M965.48 231.66L993.09 47.07" stroke="#132e65" stroke-width="1.5"></path>
        <path d="M965.48 231.66L1098.1 58.86" stroke="#132e65" stroke-width="1.5"></path>
        <path d="M985.76 406.71L985.76 406.71" stroke="#132e65" stroke-width="1.5"></path>
        <path d="M985.76 406.71L1007.14 522.14" stroke="#132e65" stroke-width="1.5"></path>
        <path d="M985.76 406.71L1098.9 510.94" stroke="#132e65" stroke-width="1.5"></path>
        <path d="M1007.14 522.14L1007.14 522.14" stroke="#132e65" stroke-width="1.5"></path>
        <path d="M1007.14 522.14L1098.9 510.94" stroke="#132e65" stroke-width="1.5"></path>
        <path d="M1007.14 522.14L963.62 674.47" stroke="#132e65" stroke-width="1.5"></path>
        <path d="M1007.14 522.14L1143.23 395.71" stroke="#132e65" stroke-width="1.5"></path>
        <path d="M1007.14 522.14L1123.3 677.45" stroke="#132e65" stroke-width="1.5"></path>
        <path d="M963.62 674.47L963.62 674.47" stroke="#132e65" stroke-width="1.5"></path>
        <path d="M963.62 674.47L1123.3 677.45" stroke="#132e65" stroke-width="1.5"></path>
        <path d="M963.62 674.47L1098.9 510.94" stroke="#132e65" stroke-width="1.5"></path>
        <path d="M963.62 674.47L790.73 514.9" stroke="#132e65" stroke-width="1.5"></path>
        <path d="M963.62 674.47L985.76 406.71" stroke="#132e65" stroke-width="1.5"></path>
        <path d="M1116.33 -90.44L1116.33 -90.44" stroke="#132e65" stroke-width="1.5"></path>
        <path d="M1116.33 -90.44L1098.1 58.86" stroke="#132e65" stroke-width="1.5"></path>
        <path d="M1116.33 -90.44L993.09 47.07" stroke="#132e65" stroke-width="1.5"></path>
        <path d="M1116.33 -90.44L1252.94 59.68" stroke="#132e65" stroke-width="1.5"></path>
        <path d="M1098.1 58.86L1098.1 58.86" stroke="#132e65" stroke-width="1.5"></path>
        <path d="M1098.1 58.86L1107.69 194.09" stroke="#132e65" stroke-width="1.5"></path>
        <path d="M1098.1 58.86L1252.94 59.68" stroke="#132e65" stroke-width="1.5"></path>
        <path d="M1098.1 58.86L1247.3 203.73" stroke="#132e65" stroke-width="1.5"></path>
        <path d="M1107.69 194.09L1107.69 194.09" stroke="#132e65" stroke-width="1.5"></path>
        <path d="M1107.69 194.09L1247.3 203.73" stroke="#132e65" stroke-width="1.5"></path>
        <path d="M1107.69 194.09L993.09 47.07" stroke="#132e65" stroke-width="1.5"></path>
        <path d="M1143.23 395.71L1143.23 395.71" stroke="#132e65" stroke-width="1.5"></path>
        <path d="M1143.23 395.71L1240.56 351.94" stroke="#132e65" stroke-width="1.5"></path>
        <path d="M1143.23 395.71L1098.9 510.94" stroke="#132e65" stroke-width="1.5"></path>
        <path d="M1143.23 395.71L985.76 406.71" stroke="#132e65" stroke-width="1.5"></path>
        <path d="M1143.23 395.71L1311.83 497.03" stroke="#132e65" stroke-width="1.5"></path>
        <path d="M1143.23 395.71L1107.69 194.09" stroke="#132e65" stroke-width="1.5"></path>
        <path d="M1098.9 510.94L1098.9 510.94" stroke="#132e65" stroke-width="1.5"></path>
        <path d="M1098.9 510.94L1123.3 677.45" stroke="#132e65" stroke-width="1.5"></path>
        <path d="M1123.3 677.45L1123.3 677.45" stroke="#132e65" stroke-width="1.5"></path>
        <path d="M1123.3 677.45L1241.86 641.15" stroke="#132e65" stroke-width="1.5"></path>
        <path d="M1252.94 59.68L1252.94 59.68" stroke="#132e65" stroke-width="1.5"></path>
        <path d="M1252.94 59.68L1247.3 203.73" stroke="#132e65" stroke-width="1.5"></path>
        <path d="M1247.3 203.73L1247.3 203.73" stroke="#132e65" stroke-width="1.5"></path>
        <path d="M1247.3 203.73L1392.81 208.81" stroke="#132e65" stroke-width="1.5"></path>
        <path d="M1247.3 203.73L1240.56 351.94" stroke="#132e65" stroke-width="1.5"></path>
        <path d="M1240.56 351.94L1240.56 351.94" stroke="#132e65" stroke-width="1.5"></path>
        <path d="M1311.83 497.03L1311.83 497.03" stroke="#132e65" stroke-width="1.5"></path>
        <path d="M1311.83 497.03L1241.86 641.15" stroke="#132e65" stroke-width="1.5"></path>
        <path d="M1311.83 497.03L1462.12 556.49" stroke="#132e65" stroke-width="1.5"></path>
        <path d="M1311.83 497.03L1240.56 351.94" stroke="#132e65" stroke-width="1.5"></path>
        <path d="M1241.86 641.15L1241.86 641.15" stroke="#132e65" stroke-width="1.5"></path>
        <path d="M1241.86 641.15L1419.18 708.99" stroke="#132e65" stroke-width="1.5"></path>
        <path d="M1443.21 -88.16L1443.21 -88.16" stroke="#132e65" stroke-width="1.5"></path>
        <path d="M1443.21 -88.16L1556.64 -75.19" stroke="#132e65" stroke-width="1.5"></path>
        <path d="M1443.21 -88.16L1439.34 43.8" stroke="#132e65" stroke-width="1.5"></path>
        <path d="M1443.21 -88.16L1597.5 65.39" stroke="#132e65" stroke-width="1.5"></path>
        <path d="M1443.21 -88.16L1252.94 59.68" stroke="#132e65" stroke-width="1.5"></path>
        <path d="M1443.21 -88.16L1392.81 208.81" stroke="#132e65" stroke-width="1.5"></path>
        <path d="M1443.21 -88.16L1116.33 -90.44" stroke="#132e65" stroke-width="1.5"></path>
        <path d="M1439.34 43.8L1439.34 43.8" stroke="#132e65" stroke-width="1.5"></path>
        <path d="M1439.34 43.8L1597.5 65.39" stroke="#132e65" stroke-width="1.5"></path>
        <path d="M1439.34 43.8L1556.64 -75.19" stroke="#132e65" stroke-width="1.5"></path>
        <path d="M1439.34 43.8L1392.81 208.81" stroke="#132e65" stroke-width="1.5"></path>
        <path d="M1392.81 208.81L1392.81 208.81" stroke="#132e65" stroke-width="1.5"></path>
        <path d="M1461.11 371.41L1461.11 371.41" stroke="#132e65" stroke-width="1.5"></path>
        <path d="M1461.11 371.41L1603.01 340.3" stroke="#132e65" stroke-width="1.5"></path>
        <path d="M1461.11 371.41L1555.46 506.23" stroke="#132e65" stroke-width="1.5"></path>
        <path d="M1461.11 371.41L1392.81 208.81" stroke="#132e65" stroke-width="1.5"></path>
        <path d="M1461.11 371.41L1462.12 556.49" stroke="#132e65" stroke-width="1.5"></path>
        <path d="M1461.11 371.41L1311.83 497.03" stroke="#132e65" stroke-width="1.5"></path>
        <path d="M1462.12 556.49L1462.12 556.49" stroke="#132e65" stroke-width="1.5"></path>
        <path d="M1462.12 556.49L1555.46 506.23" stroke="#132e65" stroke-width="1.5"></path>
        <path d="M1462.12 556.49L1419.18 708.99" stroke="#132e65" stroke-width="1.5"></path>
        <path d="M1462.12 556.49L1548.87 695.6" stroke="#132e65" stroke-width="1.5"></path>
        <path d="M1419.18 708.99L1419.18 708.99" stroke="#132e65" stroke-width="1.5"></path>
        <path d="M1419.18 708.99L1548.87 695.6" stroke="#132e65" stroke-width="1.5"></path>
        <path d="M1419.18 708.99L1311.83 497.03" stroke="#132e65" stroke-width="1.5"></path>
        <path d="M1556.64 -75.19L1556.64 -75.19" stroke="#132e65" stroke-width="1.5"></path>
        <path d="M1556.64 -75.19L1597.5 65.39" stroke="#132e65" stroke-width="1.5"></path>
        <path d="M1556.64 -75.19L1604.23 201.74" stroke="#132e65" stroke-width="1.5"></path>
        <path d="M1556.64 -75.19L1392.81 208.81" stroke="#132e65" stroke-width="1.5"></path>
        <path d="M1556.64 -75.19L1252.94 59.68" stroke="#132e65" stroke-width="1.5"></path>
        <path d="M1597.5 65.39L1597.5 65.39" stroke="#132e65" stroke-width="1.5"></path>
        <path d="M1597.5 65.39L1604.23 201.74" stroke="#132e65" stroke-width="1.5"></path>
        <path d="M1604.23 201.74L1604.23 201.74" stroke="#132e65" stroke-width="1.5"></path>
        <path d="M1604.23 201.74L1603.01 340.3" stroke="#132e65" stroke-width="1.5"></path>
        <path d="M1604.23 201.74L1392.81 208.81" stroke="#132e65" stroke-width="1.5"></path>
        <path d="M1604.23 201.74L1461.11 371.41" stroke="#132e65" stroke-width="1.5"></path>
        <path d="M1604.23 201.74L1439.34 43.8" stroke="#132e65" stroke-width="1.5"></path>
        <path d="M1603.01 340.3L1603.01 340.3" stroke="#132e65" stroke-width="1.5"></path>
        <path d="M1603.01 340.3L1555.46 506.23" stroke="#132e65" stroke-width="1.5"></path>
        <path d="M1555.46 506.23L1555.46 506.23" stroke="#132e65" stroke-width="1.5"></path>
        <path d="M1555.46 506.23L1548.87 695.6" stroke="#132e65" stroke-width="1.5"></path>
        <path d="M1555.46 506.23L1311.83 497.03" stroke="#132e65" stroke-width="1.5"></path>
        <path d="M1555.46 506.23L1419.18 708.99" stroke="#132e65" stroke-width="1.5"></path>
        <path d="M1548.87 695.6L1548.87 695.6" stroke="#132e65" stroke-width="1.5"></path>
        <path d="M1548.87 695.6L1311.83 497.03" stroke="#132e65" stroke-width="1.5"></path>
        <path d="M1548.87 695.6L1241.86 641.15" stroke="#132e65" stroke-width="1.5"></path>
        <path d="M1548.87 695.6L1461.11 371.41" stroke="#132e65" stroke-width="1.5"></path>
        <circle r="5" cx="-97.84" cy="400.4" fill="#132e65"></circle>
        <circle r="5" cx="-84.86" cy="518.42" fill="#132e65"></circle>
        <circle r="5" cx="-59.68" cy="688.57" fill="#132e65"></circle>
        <circle r="5" cx="41.06" cy="387.91" fill="#132e65"></circle>
        <circle r="5" cx="59.2" cy="504.52" fill="#132e65"></circle>
        <circle r="5" cx="108.59" cy="662.63" fill="#132e65"></circle>
        <circle r="5" cx="197.41" cy="375.5" fill="#132e65"></circle>
        <circle r="5" cx="225.88" cy="656.31" fill="#132e65"></circle>
        <circle r="5" cx="411.73" cy="368.8" fill="#132e65"></circle>
        <circle r="5" cx="374.91" cy="533.82" fill="#132e65"></circle>
        <circle r="5" cx="386.94" cy="688.59" fill="#132e65"></circle>
        <circle r="5" cx="531.53" cy="407.79" fill="#132e65"></circle>
        <circle r="5" cx="493.63" cy="538.18" fill="#132e65"></circle>
        <circle r="5" cx="654.65" cy="411.29" fill="#132e65"></circle>
        <circle r="5" cx="689.72" cy="507.47" fill="#132e65"></circle>
        <circle r="5" cx="680.81" cy="674.81" fill="#132e65"></circle>
        <circle r="5" cx="828.66" cy="95.96" fill="#132e65"></circle>
        <circle r="5" cx="841.37" cy="211.09" fill="#132e65"></circle>
        <circle r="5" cx="788.26" cy="361.86" fill="#132e65"></circle>
        <circle r="5" cx="790.73" cy="514.9" fill="#132e65"></circle>
        <circle r="5" cx="993.09" cy="47.07" fill="#132e65"></circle>
        <circle r="5" cx="965.48" cy="231.66" fill="#132e65"></circle>
        <circle r="5" cx="985.76" cy="406.71" fill="#132e65"></circle>
        <circle r="5" cx="1007.14" cy="522.14" fill="#132e65"></circle>
        <circle r="5" cx="963.62" cy="674.47" fill="#132e65"></circle>
        <circle r="5" cx="1116.33" cy="-90.44" fill="#132e65"></circle>
        <circle r="5" cx="1098.1" cy="58.86" fill="#132e65"></circle>
        <circle r="5" cx="1107.69" cy="194.09" fill="#132e65"></circle>
        <circle r="5" cx="1143.23" cy="395.71" fill="#132e65"></circle>
        <circle r="5" cx="1098.9" cy="510.94" fill="#132e65"></circle>
        <circle r="5" cx="1123.3" cy="677.45" fill="#132e65"></circle>
        <circle r="5" cx="1252.94" cy="59.68" fill="#132e65"></circle>
        <circle r="5" cx="1247.3" cy="203.73" fill="#132e65"></circle>
        <circle r="5" cx="1240.56" cy="351.94" fill="#132e65"></circle>
        <circle r="5" cx="1311.83" cy="497.03" fill="#132e65"></circle>
        <circle r="5" cx="1241.86" cy="641.15" fill="#132e65"></circle>
        <circle r="5" cx="1443.21" cy="-88.16" fill="#132e65"></circle>
        <circle r="5" cx="1439.34" cy="43.8" fill="#132e65"></circle>
        <circle r="5" cx="1392.81" cy="208.81" fill="#132e65"></circle>
        <circle r="5" cx="1461.11" cy="371.41" fill="#132e65"></circle>
        <circle r="5" cx="1462.12" cy="556.49" fill="#132e65"></circle>
        <circle r="5" cx="1419.18" cy="708.99" fill="#132e65"></circle>
        <circle r="5" cx="1556.64" cy="-75.19" fill="#132e65"></circle>
        <circle r="5" cx="1597.5" cy="65.39" fill="#132e65"></circle>
        <circle r="5" cx="1604.23" cy="201.74" fill="#132e65"></circle>
        <circle r="5" cx="1603.01" cy="340.3" fill="#132e65"></circle>
        <circle r="5" cx="1555.46" cy="506.23" fill="#132e65"></circle>
        <circle r="5" cx="1548.87" cy="695.6" fill="#132e65"></circle>
        <path d="M996.52 490.06L996.52 490.06" stroke="hsl(228.5, 77.2%, 51.5%)" stroke-width="1.5"></path>
        <path d="M996.52 490.06L958.18 407.65" stroke="hsl(228.5, 77.2%, 51.5%)" stroke-width="1.5"></path>
        <path d="M996.52 490.06L1096.51 552.05" stroke="hsl(228.5, 77.2%, 51.5%)" stroke-width="1.5"></path>
        <path d="M1009.99 684.34L1009.99 684.34" stroke="hsl(228.5, 77.2%, 51.5%)" stroke-width="1.5"></path>
        <path d="M1009.99 684.34L1117.71 712.15" stroke="hsl(228.5, 77.2%, 51.5%)" stroke-width="1.5"></path>
        <path d="M1009.99 684.34L1096.51 552.05" stroke="hsl(228.5, 77.2%, 51.5%)" stroke-width="1.5"></path>
        <path d="M1009.99 684.34L996.52 490.06" stroke="hsl(228.5, 77.2%, 51.5%)" stroke-width="1.5"></path>
        <path d="M1009.99 684.34L804.71 706.83" stroke="hsl(228.5, 77.2%, 51.5%)" stroke-width="1.5"></path>
        <path d="M1009.99 684.34L861.32 489.2" stroke="hsl(228.5, 77.2%, 51.5%)" stroke-width="1.5"></path>
        <path d="M1009.99 684.34L1254.62 664.3" stroke="hsl(228.5, 77.2%, 51.5%)" stroke-width="1.5"></path>
        <path d="M1115.51 259.78L1115.51 259.78" stroke="hsl(228.5, 77.2%, 51.5%)" stroke-width="1.5"></path>
        <path d="M1115.51 259.78L947.21 259.35" stroke="hsl(228.5, 77.2%, 51.5%)" stroke-width="1.5"></path>
        <path d="M1115.51 259.78L1275.5 341.51" stroke="hsl(228.5, 77.2%, 51.5%)" stroke-width="1.5"></path>
        <path d="M1096.51 552.05L1096.51 552.05" stroke="hsl(228.5, 77.2%, 51.5%)" stroke-width="1.5"></path>
        <path d="M1096.51 552.05L1117.71 712.15" stroke="hsl(228.5, 77.2%, 51.5%)" stroke-width="1.5"></path>
        <path d="M1096.51 552.05L1263.21 536.95" stroke="hsl(228.5, 77.2%, 51.5%)" stroke-width="1.5"></path>
        <path d="M1096.51 552.05L1254.62 664.3" stroke="hsl(228.5, 77.2%, 51.5%)" stroke-width="1.5"></path>
        <path d="M1275.5 341.51L1275.5 341.51" stroke="hsl(228.5, 77.2%, 51.5%)" stroke-width="1.5"></path>
        <path d="M1275.5 341.51L1422.04 362.26" stroke="hsl(228.5, 77.2%, 51.5%)" stroke-width="1.5"></path>
        <path d="M1275.5 341.51L1411.56 220.52" stroke="hsl(228.5, 77.2%, 51.5%)" stroke-width="1.5"></path>
        <path d="M1275.5 341.51L1263.21 536.95" stroke="hsl(228.5, 77.2%, 51.5%)" stroke-width="1.5"></path>
        <path d="M1275.5 341.51L1404.19 526.45" stroke="hsl(228.5, 77.2%, 51.5%)" stroke-width="1.5"></path>
        <path d="M1275.5 341.51L1096.51 552.05" stroke="hsl(228.5, 77.2%, 51.5%)" stroke-width="1.5"></path>
        <path d="M1437.8 643.81L1437.8 643.81" stroke="hsl(228.5, 77.2%, 51.5%)" stroke-width="1.5"></path>
        <path d="M1437.8 643.81L1546.76 693.15" stroke="hsl(228.5, 77.2%, 51.5%)" stroke-width="1.5"></path>
        <path d="M1437.8 643.81L1404.19 526.45" stroke="hsl(228.5, 77.2%, 51.5%)" stroke-width="1.5"></path>
        <path d="M1538.83 88.78L1538.83 88.78" stroke="hsl(228.5, 77.2%, 51.5%)" stroke-width="1.5"></path>
        <path d="M1538.83 88.78L1419.05 80.13" stroke="hsl(228.5, 77.2%, 51.5%)" stroke-width="1.5"></path>
        <path d="M1538.83 88.78L1557.29 208.84" stroke="hsl(228.5, 77.2%, 51.5%)" stroke-width="1.5"></path>
        <path d="M1538.83 88.78L1411.56 220.52" stroke="hsl(228.5, 77.2%, 51.5%)" stroke-width="1.5"></path>
        <path d="M-90.61 508.43L-90.61 508.43" stroke="hsl(228.5, 77.2%, 51.5%)" stroke-width="1.5"></path>
        <path d="M-90.61 508.43L-53.02 711.43" stroke="hsl(228.5, 77.2%, 51.5%)" stroke-width="1.5"></path>
        <path d="M-90.61 508.43L111.27 657.68" stroke="hsl(228.5, 77.2%, 51.5%)" stroke-width="1.5"></path>
        <path d="M-90.61 508.43L222.98 673.91" stroke="hsl(228.5, 77.2%, 51.5%)" stroke-width="1.5"></path>
        <path d="M-90.61 508.43L338.8 648.91" stroke="hsl(228.5, 77.2%, 51.5%)" stroke-width="1.5"></path>
        <path d="M-53.02 711.43L-53.02 711.43" stroke="hsl(228.5, 77.2%, 51.5%)" stroke-width="1.5"></path>
        <path d="M-53.02 711.43L111.27 657.68" stroke="hsl(228.5, 77.2%, 51.5%)" stroke-width="1.5"></path>
        <path d="M-53.02 711.43L222.98 673.91" stroke="hsl(228.5, 77.2%, 51.5%)" stroke-width="1.5"></path>
        <path d="M-53.02 711.43L338.8 648.91" stroke="hsl(228.5, 77.2%, 51.5%)" stroke-width="1.5"></path>
        <path d="M-53.02 711.43L399.06 550.41" stroke="hsl(228.5, 77.2%, 51.5%)" stroke-width="1.5"></path>
        <path d="M111.27 657.68L111.27 657.68" stroke="hsl(228.5, 77.2%, 51.5%)" stroke-width="1.5"></path>
        <path d="M111.27 657.68L222.98 673.91" stroke="hsl(228.5, 77.2%, 51.5%)" stroke-width="1.5"></path>
        <path d="M111.27 657.68L338.8 648.91" stroke="hsl(228.5, 77.2%, 51.5%)" stroke-width="1.5"></path>
        <path d="M111.27 657.68L399.06 550.41" stroke="hsl(228.5, 77.2%, 51.5%)" stroke-width="1.5"></path>
        <path d="M222.98 673.91L222.98 673.91" stroke="hsl(228.5, 77.2%, 51.5%)" stroke-width="1.5"></path>
        <path d="M222.98 673.91L338.8 648.91" stroke="hsl(228.5, 77.2%, 51.5%)" stroke-width="1.5"></path>
        <path d="M222.98 673.91L399.06 550.41" stroke="hsl(228.5, 77.2%, 51.5%)" stroke-width="1.5"></path>
        <path d="M222.98 673.91L556.31 504.69" stroke="hsl(228.5, 77.2%, 51.5%)" stroke-width="1.5"></path>
        <path d="M399.06 550.41L399.06 550.41" stroke="hsl(228.5, 77.2%, 51.5%)" stroke-width="1.5"></path>
        <path d="M399.06 550.41L338.8 648.91" stroke="hsl(228.5, 77.2%, 51.5%)" stroke-width="1.5"></path>
        <path d="M399.06 550.41L556.31 504.69" stroke="hsl(228.5, 77.2%, 51.5%)" stroke-width="1.5"></path>
        <path d="M399.06 550.41L661.5 514.93" stroke="hsl(228.5, 77.2%, 51.5%)" stroke-width="1.5"></path>
        <path d="M338.8 648.91L338.8 648.91" stroke="hsl(228.5, 77.2%, 51.5%)" stroke-width="1.5"></path>
        <path d="M338.8 648.91L556.31 504.69" stroke="hsl(228.5, 77.2%, 51.5%)" stroke-width="1.5"></path>
        <path d="M338.8 648.91L661.5 514.93" stroke="hsl(228.5, 77.2%, 51.5%)" stroke-width="1.5"></path>
        <path d="M556.31 504.69L556.31 504.69" stroke="hsl(228.5, 77.2%, 51.5%)" stroke-width="1.5"></path>
        <path d="M556.31 504.69L661.5 514.93" stroke="hsl(228.5, 77.2%, 51.5%)" stroke-width="1.5"></path>
        <path d="M556.31 504.69L702.28 699.56" stroke="hsl(228.5, 77.2%, 51.5%)" stroke-width="1.5"></path>
        <path d="M661.5 514.93L661.5 514.93" stroke="hsl(228.5, 77.2%, 51.5%)" stroke-width="1.5"></path>
        <path d="M661.5 514.93L702.28 699.56" stroke="hsl(228.5, 77.2%, 51.5%)" stroke-width="1.5"></path>
        <path d="M661.5 514.93L824.45 398.14" stroke="hsl(228.5, 77.2%, 51.5%)" stroke-width="1.5"></path>
        <path d="M661.5 514.93L861.32 489.2" stroke="hsl(228.5, 77.2%, 51.5%)" stroke-width="1.5"></path>
        <path d="M661.5 514.93L804.71 706.83" stroke="hsl(228.5, 77.2%, 51.5%)" stroke-width="1.5"></path>
        <path d="M702.28 699.56L702.28 699.56" stroke="hsl(228.5, 77.2%, 51.5%)" stroke-width="1.5"></path>
        <path d="M702.28 699.56L804.71 706.83" stroke="hsl(228.5, 77.2%, 51.5%)" stroke-width="1.5"></path>
        <path d="M702.28 699.56L861.32 489.2" stroke="hsl(228.5, 77.2%, 51.5%)" stroke-width="1.5"></path>
        <path d="M702.28 699.56L1009.99 684.34" stroke="hsl(228.5, 77.2%, 51.5%)" stroke-width="1.5"></path>
        <path d="M702.28 699.56L824.45 398.14" stroke="hsl(228.5, 77.2%, 51.5%)" stroke-width="1.5"></path>
        <path d="M824.45 398.14L824.45 398.14" stroke="hsl(228.5, 77.2%, 51.5%)" stroke-width="1.5"></path>
        <path d="M824.45 398.14L861.32 489.2" stroke="hsl(228.5, 77.2%, 51.5%)" stroke-width="1.5"></path>
        <path d="M824.45 398.14L958.18 407.65" stroke="hsl(228.5, 77.2%, 51.5%)" stroke-width="1.5"></path>
        <path d="M861.32 489.2L861.32 489.2" stroke="hsl(228.5, 77.2%, 51.5%)" stroke-width="1.5"></path>
        <path d="M861.32 489.2L958.18 407.65" stroke="hsl(228.5, 77.2%, 51.5%)" stroke-width="1.5"></path>
        <path d="M861.32 489.2L996.52 490.06" stroke="hsl(228.5, 77.2%, 51.5%)" stroke-width="1.5"></path>
        <path d="M804.71 706.83L804.71 706.83" stroke="hsl(228.5, 77.2%, 51.5%)" stroke-width="1.5"></path>
        <path d="M804.71 706.83L861.32 489.2" stroke="hsl(228.5, 77.2%, 51.5%)" stroke-width="1.5"></path>
        <path d="M804.71 706.83L996.52 490.06" stroke="hsl(228.5, 77.2%, 51.5%)" stroke-width="1.5"></path>
        <path d="M947.21 259.35L947.21 259.35" stroke="hsl(228.5, 77.2%, 51.5%)" stroke-width="1.5"></path>
        <path d="M947.21 259.35L958.18 407.65" stroke="hsl(228.5, 77.2%, 51.5%)" stroke-width="1.5"></path>
        <path d="M947.21 259.35L824.45 398.14" stroke="hsl(228.5, 77.2%, 51.5%)" stroke-width="1.5"></path>
        <path d="M947.21 259.35L996.52 490.06" stroke="hsl(228.5, 77.2%, 51.5%)" stroke-width="1.5"></path>
        <path d="M947.21 259.35L861.32 489.2" stroke="hsl(228.5, 77.2%, 51.5%)" stroke-width="1.5"></path>
        <path d="M958.18 407.65L958.18 407.65" stroke="hsl(228.5, 77.2%, 51.5%)" stroke-width="1.5"></path>
        <path d="M958.18 407.65L1096.51 552.05" stroke="hsl(228.5, 77.2%, 51.5%)" stroke-width="1.5"></path>
        <path d="M958.18 407.65L1115.51 259.78" stroke="hsl(228.5, 77.2%, 51.5%)" stroke-width="1.5"></path>
        <path d="M1117.71 712.15L1117.71 712.15" stroke="hsl(228.5, 77.2%, 51.5%)" stroke-width="1.5"></path>
        <path d="M1117.71 712.15L1254.62 664.3" stroke="hsl(228.5, 77.2%, 51.5%)" stroke-width="1.5"></path>
        <path d="M1272.73 -51.08L1272.73 -51.08" stroke="hsl(228.5, 77.2%, 51.5%)" stroke-width="1.5"></path>
        <path d="M1272.73 -51.08L1254.6 53.75" stroke="hsl(228.5, 77.2%, 51.5%)" stroke-width="1.5"></path>
        <path d="M1272.73 -51.08L1419.05 80.13" stroke="hsl(228.5, 77.2%, 51.5%)" stroke-width="1.5"></path>
        <path d="M1272.73 -51.08L1538.83 88.78" stroke="hsl(228.5, 77.2%, 51.5%)" stroke-width="1.5"></path>
        <path d="M1272.73 -51.08L1411.56 220.52" stroke="hsl(228.5, 77.2%, 51.5%)" stroke-width="1.5"></path>
        <path d="M1272.73 -51.08L1611.81 -97.56" stroke="hsl(228.5, 77.2%, 51.5%)" stroke-width="1.5"></path>
        <path d="M1254.6 53.75L1254.6 53.75" stroke="hsl(228.5, 77.2%, 51.5%)" stroke-width="1.5"></path>
        <path d="M1254.6 53.75L1419.05 80.13" stroke="hsl(228.5, 77.2%, 51.5%)" stroke-width="1.5"></path>
        <path d="M1254.6 53.75L1411.56 220.52" stroke="hsl(228.5, 77.2%, 51.5%)" stroke-width="1.5"></path>
        <path d="M1254.6 53.75L1115.51 259.78" stroke="hsl(228.5, 77.2%, 51.5%)" stroke-width="1.5"></path>
        <path d="M1263.21 536.95L1263.21 536.95" stroke="hsl(228.5, 77.2%, 51.5%)" stroke-width="1.5"></path>
        <path d="M1263.21 536.95L1254.62 664.3" stroke="hsl(228.5, 77.2%, 51.5%)" stroke-width="1.5"></path>
        <path d="M1263.21 536.95L1404.19 526.45" stroke="hsl(228.5, 77.2%, 51.5%)" stroke-width="1.5"></path>
        <path d="M1263.21 536.95L1437.8 643.81" stroke="hsl(228.5, 77.2%, 51.5%)" stroke-width="1.5"></path>
        <path d="M1254.62 664.3L1254.62 664.3" stroke="hsl(228.5, 77.2%, 51.5%)" stroke-width="1.5"></path>
        <path d="M1254.62 664.3L1437.8 643.81" stroke="hsl(228.5, 77.2%, 51.5%)" stroke-width="1.5"></path>
        <path d="M1254.62 664.3L1404.19 526.45" stroke="hsl(228.5, 77.2%, 51.5%)" stroke-width="1.5"></path>
        <path d="M1419.05 80.13L1419.05 80.13" stroke="hsl(228.5, 77.2%, 51.5%)" stroke-width="1.5"></path>
        <path d="M1419.05 80.13L1411.56 220.52" stroke="hsl(228.5, 77.2%, 51.5%)" stroke-width="1.5"></path>
        <path d="M1419.05 80.13L1557.29 208.84" stroke="hsl(228.5, 77.2%, 51.5%)" stroke-width="1.5"></path>
        <path d="M1411.56 220.52L1411.56 220.52" stroke="hsl(228.5, 77.2%, 51.5%)" stroke-width="1.5"></path>
        <path d="M1411.56 220.52L1422.04 362.26" stroke="hsl(228.5, 77.2%, 51.5%)" stroke-width="1.5"></path>
        <path d="M1411.56 220.52L1557.29 208.84" stroke="hsl(228.5, 77.2%, 51.5%)" stroke-width="1.5"></path>
        <path d="M1422.04 362.26L1422.04 362.26" stroke="hsl(228.5, 77.2%, 51.5%)" stroke-width="1.5"></path>
        <path d="M1422.04 362.26L1561.24 366.42" stroke="hsl(228.5, 77.2%, 51.5%)" stroke-width="1.5"></path>
        <path d="M1404.19 526.45L1404.19 526.45" stroke="hsl(228.5, 77.2%, 51.5%)" stroke-width="1.5"></path>
        <path d="M1404.19 526.45L1554.24 522.58" stroke="hsl(228.5, 77.2%, 51.5%)" stroke-width="1.5"></path>
        <path d="M1404.19 526.45L1422.04 362.26" stroke="hsl(228.5, 77.2%, 51.5%)" stroke-width="1.5"></path>
        <path d="M1611.81 -97.56L1611.81 -97.56" stroke="hsl(228.5, 77.2%, 51.5%)" stroke-width="1.5"></path>
        <path d="M1611.81 -97.56L1538.83 88.78" stroke="hsl(228.5, 77.2%, 51.5%)" stroke-width="1.5"></path>
        <path d="M1611.81 -97.56L1419.05 80.13" stroke="hsl(228.5, 77.2%, 51.5%)" stroke-width="1.5"></path>
        <path d="M1611.81 -97.56L1557.29 208.84" stroke="hsl(228.5, 77.2%, 51.5%)" stroke-width="1.5"></path>
        <path d="M1611.81 -97.56L1411.56 220.52" stroke="hsl(228.5, 77.2%, 51.5%)" stroke-width="1.5"></path>
        <path d="M1611.81 -97.56L1254.6 53.75" stroke="hsl(228.5, 77.2%, 51.5%)" stroke-width="1.5"></path>
        <path d="M1557.29 208.84L1557.29 208.84" stroke="hsl(228.5, 77.2%, 51.5%)" stroke-width="1.5"></path>
        <path d="M1557.29 208.84L1561.24 366.42" stroke="hsl(228.5, 77.2%, 51.5%)" stroke-width="1.5"></path>
        <path d="M1557.29 208.84L1422.04 362.26" stroke="hsl(228.5, 77.2%, 51.5%)" stroke-width="1.5"></path>
        <path d="M1561.24 366.42L1561.24 366.42" stroke="hsl(228.5, 77.2%, 51.5%)" stroke-width="1.5"></path>
        <path d="M1561.24 366.42L1554.24 522.58" stroke="hsl(228.5, 77.2%, 51.5%)" stroke-width="1.5"></path>
        <path d="M1561.24 366.42L1411.56 220.52" stroke="hsl(228.5, 77.2%, 51.5%)" stroke-width="1.5"></path>
        <path d="M1561.24 366.42L1404.19 526.45" stroke="hsl(228.5, 77.2%, 51.5%)" stroke-width="1.5"></path>
        <path d="M1561.24 366.42L1538.83 88.78" stroke="hsl(228.5, 77.2%, 51.5%)" stroke-width="1.5"></path>
        <path d="M1554.24 522.58L1554.24 522.58" stroke="hsl(228.5, 77.2%, 51.5%)" stroke-width="1.5"></path>
        <path d="M1554.24 522.58L1437.8 643.81" stroke="hsl(228.5, 77.2%, 51.5%)" stroke-width="1.5"></path>
        <path d="M1554.24 522.58L1546.76 693.15" stroke="hsl(228.5, 77.2%, 51.5%)" stroke-width="1.5"></path>
        <path d="M1554.24 522.58L1422.04 362.26" stroke="hsl(228.5, 77.2%, 51.5%)" stroke-width="1.5"></path>
        <path d="M1546.76 693.15L1546.76 693.15" stroke="hsl(228.5, 77.2%, 51.5%)" stroke-width="1.5"></path>
        <path d="M1546.76 693.15L1404.19 526.45" stroke="hsl(228.5, 77.2%, 51.5%)" stroke-width="1.5"></path>
        <circle r="25" cx="996.52" cy="490.06" fill="url(#SvgjsRadialGradient1001)"></circle>
        <circle r="25" cx="1009.99" cy="684.34" fill="url(#SvgjsRadialGradient1001)"></circle>
        <circle r="25" cx="1115.51" cy="259.78" fill="url(#SvgjsRadialGradient1001)"></circle>
        <circle r="25" cx="1096.51" cy="552.05" fill="url(#SvgjsRadialGradient1001)"></circle>
        <circle r="25" cx="1275.5" cy="341.51" fill="url(#SvgjsRadialGradient1001)"></circle>
        <circle r="25" cx="1437.8" cy="643.81" fill="url(#SvgjsRadialGradient1001)"></circle>
        <circle r="25" cx="1538.83" cy="88.78" fill="url(#SvgjsRadialGradient1001)"></circle>
        <circle r="5" cx="-90.61" cy="508.43" fill="#8b9ad9"></circle>
        <circle r="5" cx="-53.02" cy="711.43" fill="#8b9ad9"></circle>
        <circle r="5" cx="111.27" cy="657.68" fill="#8b9ad9"></circle>
        <circle r="5" cx="222.98" cy="673.91" fill="#8b9ad9"></circle>
        <circle r="5" cx="399.06" cy="550.41" fill="#8b9ad9"></circle>
        <circle r="5" cx="338.8" cy="648.91" fill="#8b9ad9"></circle>
        <circle r="5" cx="556.31" cy="504.69" fill="#8b9ad9"></circle>
        <circle r="5" cx="661.5" cy="514.93" fill="#8b9ad9"></circle>
        <circle r="5" cx="702.28" cy="699.56" fill="#8b9ad9"></circle>
        <circle r="5" cx="824.45" cy="398.14" fill="#8b9ad9"></circle>
        <circle r="5" cx="861.32" cy="489.2" fill="#8b9ad9"></circle>
        <circle r="5" cx="804.71" cy="706.83" fill="#8b9ad9"></circle>
        <circle r="5" cx="947.21" cy="259.35" fill="#8b9ad9"></circle>
        <circle r="5" cx="958.18" cy="407.65" fill="#8b9ad9"></circle>
        <circle r="5" cx="1117.71" cy="712.15" fill="#8b9ad9"></circle>
        <circle r="5" cx="1272.73" cy="-51.08" fill="#8b9ad9"></circle>
        <circle r="5" cx="1254.6" cy="53.75" fill="#8b9ad9"></circle>
        <circle r="5" cx="1263.21" cy="536.95" fill="#8b9ad9"></circle>
        <circle r="5" cx="1254.62" cy="664.3" fill="#8b9ad9"></circle>
        <circle r="5" cx="1419.05" cy="80.13" fill="#8b9ad9"></circle>
        <circle r="5" cx="1411.56" cy="220.52" fill="#8b9ad9"></circle>
        <circle r="5" cx="1422.04" cy="362.26" fill="#8b9ad9"></circle>
        <circle r="5" cx="1404.19" cy="526.45" fill="#8b9ad9"></circle>
        <circle r="5" cx="1611.81" cy="-97.56" fill="#8b9ad9"></circle>
        <circle r="5" cx="1557.29" cy="208.84" fill="#8b9ad9"></circle>
        <circle r="5" cx="1561.24" cy="366.42" fill="#8b9ad9"></circle>
        <circle r="5" cx="1554.24" cy="522.58" fill="#8b9ad9"></circle>
        <circle r="5" cx="1546.76" cy="693.15" fill="#8b9ad9"></circle>
    </g>
    <defs>
        <mask id="SvgjsMask1000">
            <rect width="1440" height="560" fill="#ffffff"></rect>
        </mask>
        <radialGradient id="SvgjsRadialGradient1001">
            <stop stop-color="#ffffff" offset="0.1"></stop>
            <stop stop-color="#1735b3" offset="0.2"></stop>
            <stop stop-color="rgba(23, 53, 179, 0)" offset="1"></stop>
        </radialGradient>
    </defs>
</svg>